# xmcd
#
# Track frame offsets: 
#        150
#        16159
#        36435
#        61107
#        76687
#        93304
#        110443
#        124671
#        139907
#        157165
#        179167
#        199720
#        218619
#
# Disc length: 3234 seconds
#
# Revision: 0
# Processed by: cddbd v1.4PL0 Copyright (c) Steve Scherf et al.
# Submitted via: ExactAudioCopy v0.95a3
#
DISCID=ae0ca00d
DTITLE=Katie Webster and Black Cat Bone - Men smart, women smarter
DYEAR=1991
DGENRE=Blues
TTITLE0=Men smart, women smarter
TTITLE1=Clean-up man
TTITLE2=Misty blue
TTITLE3=I'm your power-machine
TTITLE4=Slip away
TTITLE5=Problems
TTITLE6=I'll be faithful to you
TTITLE7=Willie, Willie
TTITLE8=I ain't lookin' for trouble
TTITLE9=Bullie's soulfood place
TTITLE10=I need the rest of my whole life
TTITLE11=I'll always stay around
TTITLE12=Troubles of the world
EXTD=
EXTT0=
EXTT1=
EXTT2=
EXTT3=
EXTT4=
EXTT5=
EXTT6=
EXTT7=
EXTT8=
EXTT9=
EXTT10=
EXTT11=
EXTT12=
PLAYORDER=
